<svg width="18" height="19" viewBox="0 0 18 19" fill="none" xmlns="http://www.w3.org/2000/svg">
<path d="M8.71875 0.849609C3.90234 0.849609 0 4.78711 0 9.56836C0 14.3848 3.90234 18.2871 8.71875 18.2871C13.5 18.2871 17.4375 14.3848 17.4375 9.56836C17.4375 4.78711 13.5 0.849609 8.71875 0.849609ZM14.4492 4.89258C15.5039 6.1582 16.1367 7.77539 16.1367 9.5332C15.8906 9.46289 13.4297 8.9707 10.9688 9.28711C10.7578 8.79492 10.582 8.37305 10.3008 7.81055C13.0781 6.68555 14.3086 5.10352 14.4492 4.89258ZM13.6406 4.01367C13.5 4.22461 12.375 5.73633 9.73828 6.7207C8.50781 4.4707 7.17188 2.64258 6.96094 2.36133C9.31641 1.79883 11.8125 2.39648 13.6406 4.01367ZM5.51953 2.85352C5.73047 3.13477 7.06641 4.96289 8.29688 7.17773C4.81641 8.0918 1.75781 8.0918 1.40625 8.05664C1.89844 5.77148 3.44531 3.83789 5.51953 2.85352ZM1.26562 9.60352C1.26562 9.5332 1.26562 9.46289 1.26562 9.35742C1.58203 9.39258 5.20312 9.42773 8.89453 8.30273C9.14062 8.72461 9.31641 9.14648 9.52734 9.56836C6.82031 10.3418 4.35938 12.5215 3.16406 14.5605C1.96875 13.2598 1.26562 11.502 1.26562 9.60352ZM4.11328 15.4746C4.92188 13.8926 7.03125 11.8184 10.0195 10.7988C11.0742 13.5059 11.4961 15.791 11.6016 16.459C9.21094 17.4785 6.32812 17.1973 4.11328 15.4746ZM12.8672 15.7559C12.7969 15.334 12.375 13.1543 11.4258 10.4473C13.7461 10.0957 15.7852 10.6934 16.0664 10.7637C15.7148 12.8379 14.5195 14.6309 12.8672 15.7559Z" fill="#111827"/>
</svg>
